<?xml version="1.0" standalone="no"?>
<!DOCTYPE svg PUBLIC "-//W3C//DTD SVG 1.1//EN"
"http://www.w3.org/Graphics/SVG/1.1/DTD/svg11.dtd">

<svg width="316" height="280" view_box="0 0 316 280"
xmlns="http://www.w3.org/2000/svg"
xmlns:link="http://www.w3.org/1999/xlink">\n\n<desc>Généré par Mocodo 2.3.7 le Mon, 17 Feb 2020 03:20:22</desc>

<rect id="frame" x="0" y="0" width="316" height="280" fill="#ffffbf" stroke="none" stroke-width="0"/>

<!-- Association CONTIENT -->
<line x1="266" y1="102" x2="154" y2="102" stroke="#f46d43" stroke-width="2"/>
<text x="199" y="119.0" fill="#4575b4" font-family="Verdana" font-size="12">1,1</text>
<line x1="199" y1="121.0" x2="220" y2="121.0" stroke="#4575b4" stroke-width="1"/>
<line x1="46" y1="102" x2="154" y2="102" stroke="#f46d43" stroke-width="2"/>
<text x="88" y="119.0" fill="#4575b4" font-family="Verdana" font-size="12">1,N</text>
<g id="association-CONTIENT">
	<path d="M 179 77 a 14 14 90 0 1 14 14 V 102 h -78 V 91 a 14 14 90 0 1 14 -14" fill="#fdae61" stroke="#fdae61" stroke-width="0"/>
	<path d="M 193 102.0 v 11 a 14 14 90 0 1 -14 14 H 129 a 14 14 90 0 1 -14 -14 V 102.0 H 78" fill="#fee090" stroke="#fee090" stroke-width="0"/>
	<rect x="115" y="77" width="78" height="50" fill="none" rx="14" stroke="#f46d43" stroke-width="2"/>
	<line x1="115" y1="102" x2="193" y2="102" stroke="#f46d43" stroke-width="1"/>
	<text x="122" y="94.7" fill="#000000" font-family="Verdana" font-size="12">CONTIENT</text>
</g>

<!-- Entity COMMUNE -->
<g id="entity-COMMUNE">
	<g id="frame-COMMUNE">
		<rect x="9" y="68" width="74" height="25" fill="#abd9e9" stroke="#abd9e9" stroke-width="0"/>
		<rect x="9" y="93.0" width="74" height="43" fill="#e0f3f8" stroke="#e0f3f8" stroke-width="0"/>
		<rect x="9" y="68" width="74" height="68" fill="none" stroke="#74add1" stroke-width="2"/>
		<line x1="9" y1="93" x2="83" y2="93" stroke="#74add1" stroke-width="1"/>
	</g>
	<text x="14" y="85.7" fill="#000000" font-family="Verdana" font-size="12">COMMUNE</text>
	<text x="14" y="110.8" fill="#000000" font-family="Verdana" font-size="12">code</text>
	<line x1="14" y1="113" x2="43" y2="113" stroke="#000000" stroke-width="1"/>
	<text x="14" y="127.8" fill="#000000" font-family="Verdana" font-size="12">nom</text>
</g>

<!-- Entity PARCELLE -->
<g id="entity-PARCELLE">
	<g id="frame-PARCELLE">
		<rect x="225" y="9" width="82" height="25" fill="#abd9e9" stroke="#abd9e9" stroke-width="0"/>
		<rect x="225" y="34.0" width="82" height="161" fill="#e0f3f8" stroke="#e0f3f8" stroke-width="0"/>
		<rect x="225" y="9" width="82" height="186" fill="none" stroke="#74add1" stroke-width="2"/>
		<line x1="225" y1="34" x2="307" y2="34" stroke="#74add1" stroke-width="1"/>
	</g>
	<text x="235" y="26.7" fill="#000000" font-family="Verdana" font-size="12">PARCELLE</text>
	<text x="230" y="51.7" fill="#000000" font-family="Verdana" font-size="12">gid</text>
	<line x1="230" y1="54" x2="249" y2="54" style="fill:none;stroke:#000000;stroke-width:1;stroke-dasharray:4;"/>
	<text x="230" y="68.7" fill="#000000" font-family="Verdana" font-size="12">numero</text>
	<text x="230" y="85.7" fill="#000000" font-family="Verdana" font-size="12">code_dep</text>
	<text x="230" y="102.8" fill="#000000" font-family="Verdana" font-size="12">#code_com</text>
	<text x="230" y="119.8" fill="#000000" font-family="Verdana" font-size="12">com_abs</text>
	<text x="230" y="136.8" fill="#000000" font-family="Verdana" font-size="12">section</text>
	<text x="230" y="153.8" fill="#000000" font-family="Verdana" font-size="12">feuille</text>
	<text x="230" y="170.8" fill="#000000" font-family="Verdana" font-size="12">code_arr</text>
	<text x="230" y="187.8" fill="#000000" font-family="Verdana" font-size="12">geom</text>
</g>

<!-- Entity SECTION -->
<g id="entity-SECTION">
	<g id="frame-SECTION">
		<rect x="118" y="169" width="72" height="25" fill="#abd9e9" stroke="#abd9e9" stroke-width="0"/>
		<rect x="118" y="194.0" width="72" height="77" fill="#e0f3f8" stroke="#e0f3f8" stroke-width="0"/>
		<rect x="118" y="169" width="72" height="102" fill="none" stroke="#74add1" stroke-width="2"/>
		<line x1="118" y1="194" x2="190" y2="194" stroke="#74add1" stroke-width="1"/>
	</g>
	<text x="126" y="186.7" fill="#000000" font-family="Verdana" font-size="12">SECTION</text>
	<text x="123" y="211.7" fill="#000000" font-family="Verdana" font-size="12">id</text>
	<line x1="123" y1="214" x2="135" y2="214" stroke="#000000" stroke-width="1"/>
	<text x="123" y="228.8" fill="#000000" font-family="Verdana" font-size="12">code_com</text>
	<text x="123" y="245.8" fill="#000000" font-family="Verdana" font-size="12">com_abs</text>
	<text x="123" y="262.8" fill="#000000" font-family="Verdana" font-size="12">section</text>
</g>
</svg>