<?xml version="1.0" standalone="no"?>
<!DOCTYPE svg PUBLIC "-//W3C//DTD SVG 1.1//EN"
"http://www.w3.org/Graphics/SVG/1.1/DTD/svg11.dtd">

<svg width="860" height="86" view_box="0 0 860 86"
xmlns="http://www.w3.org/2000/svg"
xmlns:link="http://www.w3.org/1999/xlink">\n\n<desc>Généré par Mocodo 2.3.7 le Mon, 09 Dec 2019 04:10:00</desc>

<rect id="frame" x="0" y="0" width="860" height="86" fill="#ffffbf" stroke="none" stroke-width="0"/>

<!-- Association Appartenir -->
<line x1="586" y1="43" x2="448" y2="43" stroke="#f46d43" stroke-width="2"/>
<text x="492" y="60.0" fill="#4575b4" font-family="Verdana" font-size="12">1,N</text>
<line x1="321" y1="43" x2="448" y2="43" stroke="#f46d43" stroke-width="2"/>
<text x="382" y="60.0" fill="#4575b4" font-family="Verdana" font-size="12">1,1</text>
<line x1="382" y1="62.0" x2="403" y2="62.0" stroke="#4575b4" stroke-width="1"/>
<g id="association-Appartenir">
	<path d="M 473 18 a 14 14 90 0 1 14 14 V 43 h -78 V 32 a 14 14 90 0 1 14 -14" fill="#fdae61" stroke="#fdae61" stroke-width="0"/>
	<path d="M 487 43.0 v 11 a 14 14 90 0 1 -14 14 H 423 a 14 14 90 0 1 -14 -14 V 43.0 H 78" fill="#fee090" stroke="#fee090" stroke-width="0"/>
	<rect x="409" y="18" width="78" height="50" fill="none" rx="14" stroke="#f46d43" stroke-width="2"/>
	<line x1="409" y1="43" x2="487" y2="43" stroke="#f46d43" stroke-width="1"/>
	<text x="416" y="35.7" fill="#000000" font-family="Verdana" font-size="12">Appartenir</text>
</g>

<!-- Association Composer -->
<line x1="321" y1="43" x2="195" y2="43" stroke="#f46d43" stroke-width="2"/>
<text x="238" y="60.0" fill="#4575b4" font-family="Verdana" font-size="12">0,N</text>
<line x1="67" y1="43" x2="195" y2="43" stroke="#f46d43" stroke-width="2"/>
<text x="130" y="60.0" fill="#4575b4" font-family="Verdana" font-size="12">1,1</text>
<line x1="130" y1="62.0" x2="151" y2="62.0" stroke="#4575b4" stroke-width="1"/>
<g id="association-Composer">
	<path d="M 219 18 a 14 14 90 0 1 14 14 V 43 h -76 V 32 a 14 14 90 0 1 14 -14" fill="#fdae61" stroke="#fdae61" stroke-width="0"/>
	<path d="M 233 43.0 v 11 a 14 14 90 0 1 -14 14 H 171 a 14 14 90 0 1 -14 -14 V 43.0 H 76" fill="#fee090" stroke="#fee090" stroke-width="0"/>
	<rect x="157" y="18" width="76" height="50" fill="none" rx="14" stroke="#f46d43" stroke-width="2"/>
	<line x1="157" y1="43" x2="233" y2="43" stroke="#f46d43" stroke-width="1"/>
	<text x="164" y="35.7" fill="#000000" font-family="Verdana" font-size="12">Composer</text>
</g>

<!-- Association Se situer -->
<line x1="819" y1="43" x2="720" y2="43" stroke="#f46d43" stroke-width="2"/>
<text x="760" y="60.0" fill="#4575b4" font-family="Verdana" font-size="12">0,N</text>
<line x1="586" y1="43" x2="720" y2="43" stroke="#f46d43" stroke-width="2"/>
<text x="658" y="60.0" fill="#4575b4" font-family="Verdana" font-size="12">1,1</text>
<line x1="658" y1="62.0" x2="679" y2="62.0" stroke="#4575b4" stroke-width="1"/>
<g id="association-Se situer">
	<path d="M 741 18 a 14 14 90 0 1 14 14 V 43 h -70 V 32 a 14 14 90 0 1 14 -14" fill="#fdae61" stroke="#fdae61" stroke-width="0"/>
	<path d="M 755 43.0 v 11 a 14 14 90 0 1 -14 14 H 699 a 14 14 90 0 1 -14 -14 V 43.0 H 70" fill="#fee090" stroke="#fee090" stroke-width="0"/>
	<rect x="685" y="18" width="70" height="50" fill="none" rx="14" stroke="#f46d43" stroke-width="2"/>
	<line x1="685" y1="43" x2="755" y2="43" stroke="#f46d43" stroke-width="1"/>
	<text x="692" y="35.7" fill="#000000" font-family="Verdana" font-size="12">Se situer</text>
</g>

<!-- Entity Étage -->
<g id="entity-Étage">
	<g id="frame-Étage">
		<rect x="265" y="9" width="112" height="25" fill="#abd9e9" stroke="#abd9e9" stroke-width="0"/>
		<rect x="265" y="34.0" width="112" height="43" fill="#e0f3f8" stroke="#e0f3f8" stroke-width="0"/>
		<rect x="265" y="9" width="112" height="68" fill="none" stroke="#74add1" stroke-width="2"/>
		<line x1="265" y1="34" x2="377" y2="34" stroke="#74add1" stroke-width="1"/>
	</g>
	<text x="303" y="26.7" fill="#000000" font-family="Verdana" font-size="12">Étage</text>
	<text x="270" y="51.8" fill="#000000" font-family="Verdana" font-size="12">num étage</text>
	<line x1="270" y1="54" x2="336" y2="54" style="fill:none;stroke:#000000;stroke-width:1;stroke-dasharray:4;"/>
	<text x="270" y="68.8" fill="#000000" font-family="Verdana" font-size="12">nb appart. étage</text>
</g>

<!-- Entity Appartement -->
<g id="entity-Appartement">
	<g id="frame-Appartement">
		<rect x="9" y="9" width="116" height="25" fill="#abd9e9" stroke="#abd9e9" stroke-width="0"/>
		<rect x="9" y="34.0" width="116" height="43" fill="#e0f3f8" stroke="#e0f3f8" stroke-width="0"/>
		<rect x="9" y="9" width="116" height="68" fill="none" stroke="#74add1" stroke-width="2"/>
		<line x1="9" y1="34" x2="125" y2="34" stroke="#74add1" stroke-width="1"/>
	</g>
	<text x="27" y="26.7" fill="#000000" font-family="Verdana" font-size="12">Appartement</text>
	<text x="14" y="51.8" fill="#000000" font-family="Verdana" font-size="12">num appart.</text>
	<line x1="14" y1="54" x2="90" y2="54" style="fill:none;stroke:#000000;stroke-width:1;stroke-dasharray:4;"/>
	<text x="14" y="68.8" fill="#000000" font-family="Verdana" font-size="12">nb pièces appart.</text>
</g>

<!-- Entity Immeuble -->
<g id="entity-Immeuble">
	<g id="frame-Immeuble">
		<rect x="519" y="9" width="134" height="25" fill="#abd9e9" stroke="#abd9e9" stroke-width="0"/>
		<rect x="519" y="34.0" width="134" height="43" fill="#e0f3f8" stroke="#e0f3f8" stroke-width="0"/>
		<rect x="519" y="9" width="134" height="68" fill="none" stroke="#74add1" stroke-width="2"/>
		<line x1="519" y1="34" x2="653" y2="34" stroke="#74add1" stroke-width="1"/>
	</g>
	<text x="555" y="26.7" fill="#000000" font-family="Verdana" font-size="12">Immeuble</text>
	<text x="524" y="51.8" fill="#000000" font-family="Verdana" font-size="12">num immeuble</text>
	<line x1="524" y1="54" x2="615" y2="54" style="fill:none;stroke:#000000;stroke-width:1;stroke-dasharray:4;"/>
	<text x="524" y="68.8" fill="#000000" font-family="Verdana" font-size="12">nb étages immeuble</text>
</g>

<!-- Entity Rue -->
<g id="entity-Rue">
	<g id="frame-Rue">
		<rect x="787" y="9" width="64" height="25" fill="#abd9e9" stroke="#abd9e9" stroke-width="0"/>
		<rect x="787" y="34.0" width="64" height="43" fill="#e0f3f8" stroke="#e0f3f8" stroke-width="0"/>
		<rect x="787" y="9" width="64" height="68" fill="none" stroke="#74add1" stroke-width="2"/>
		<line x1="787" y1="34" x2="851" y2="34" stroke="#74add1" stroke-width="1"/>
	</g>
	<text x="807" y="26.7" fill="#000000" font-family="Verdana" font-size="12">Rue</text>
	<text x="792" y="51.8" fill="#000000" font-family="Verdana" font-size="12">code rue</text>
	<line x1="792" y1="54" x2="845" y2="54" stroke="#000000" stroke-width="1"/>
	<text x="792" y="68.8" fill="#000000" font-family="Verdana" font-size="12">nom rue</text>
</g>
</svg>